{"title":"Dracula.1979.HQTV.(FixColor).720p.x264.AC3.[FrOnkY+Bazy=HDmEntEs","uid":9769686,"size":3043543793,"categoryP":"video","categoryS":"hd___movies","magnet":"?xt=urn:btih:d5d2baa0a3dc2692b79f5ae24104239800c1f3ed&amp;dn=Dracula.1979.HQTV.%28FixColor%29.720p.x264.AC3.%5BFrOnkY%2BBazy%3DHDmEntEs&amp;tr=udp%3A%2F%2Ftracker.openbittorrent.com%3A80&amp;tr=udp%3A%2F%2Fopen.demonii.com%3A1337&amp;tr=udp%3A%2F%2Ftracker.coppersurfer.tk%3A6969&amp;tr=udp%3A%2F%2Fexodus.desync.com%3A6969","seeders":1,"leechers":0,"uploader":"HDmEntEs","files":-1,"time":1394936790,"description":"The story of the greatest lover who ever lived, died, and lived again. \n\n\nDracula.1979.HQTV.(FixColor).720p.x264.AC3.[FrOnkY+Bazy=HDmEntEs].mkv\n\nFormat                                   : Matroska\nFormat version                           : Version 2\nFile size                                : 2.83 GiB\nDuration                                 : 1h 49mn\nOverall bit rate                         : 3 720 Kbps\nWriting application                      : mkvmerge v3.4.0 ('Rapunzel') built on May 15 2010 09:38:20\nWriting library                          : libebml v0.8.0 + libmatroska v0.9.0\n\nVideo\nID                                       : 1\nFormat                                   : AVC\nFormat/Info                              : Advanced Video Codec\nFormat profile                           : &lt;a class=&quot;__cf_email__&quot; href=&quot;/cdn-cgi/l/email-protection&quot; data-cfemail=&quot;b8f0d1dfd0f8f48c9689&quot;&gt;[email&amp;#160;protected]&lt;/a&gt;&lt;script cf-hash='f9e31' type=&quot;text/javascript&quot;&gt;\n/* &lt;![CDATA[ */!function(){try{var t=&quot;currentScript&quot;in document?document.currentScript:function(){for(var t=document.getElementsByTagName(&quot;script&quot;),e=t.length;e--;)if(t[e].getAttribute(&quot;cf-hash&quot;))return t[e]}();if(t&amp;&amp;t.previousSibling){var e,r,n,i,c=t.previousSibling,a=c.getAttribute(&quot;data-cfemail&quot;);if(a){for(e=&quot;&quot;,r=parseInt(a.substr(0,2),16),n=2;a.length-n;n+=2)i=parseInt(a.substr(n,2),16)^r,e+=String.fromCharCode(i);e=document.createTextNode(e),c.parentNode.replaceChild(e,c)}}}catch(u){}}();/* ]]&gt; */&lt;/script&gt;\nFormat settings, CABAC                   : Yes\nFormat settings, ReFrames                : 12 frames\nCodec ID                                 : V_MPEG4/ISO/AVC\nDuration                                 : 1h 49mn\nBit rate                                 : 3 333 Kbps\nWidth                                    : 1 280 pixels\nHeight                                   : 528 pixels\nDisplay aspect ratio                     : 2.40:1\nFrame rate mode                          : Constant\nFrame rate                               : 23.976 fps\nColor space                              : YUV\nChroma subsampling                       : 4:2:0\nBit depth                                : 8 bits\nScan type                                : Progressive\nBits/(Pixel*Frame)                       : 0.206\nStream size                              : 2.49 GiB (88%)\nWriting library                          : x264 core 129 r2230 1cffe9f\nLanguage                                 : English\nDefault                                  : No\nForced                                   : No\n\nAudio #1\nID                                       : 2\nFormat                                   : AC-3\nFormat/Info                              : Audio Coding 3\nMode extension                           : CM (complete main)\nFormat settings, Endianness              : Big\nCodec ID                                 : A_AC3\nDuration                                 : 1h 49mn\nBit rate mode                            : Constant\nBit rate                                 : 192 Kbps\nChannel(s)                               : 2 channels\nChannel positions                        : Front: L R\nSampling rate                            : 48.0 KHz\nBit depth                                : 16 bits\nStream size                              : 150 MiB (5%)\nLanguage                                 : English\nDefault                                  : No\nForced                                   : No\n\nAudio #2\nID                                       : 3\nFormat                                   : AC-3\nFormat/Info                              : Audio Coding 3\nMode extension                           : CM (complete main)\nFormat settings, Endianness              : Big\nCodec ID                                 : A_AC3\nDuration                                 : 1h 49mn\nBit rate mode                            : Constant\nBit rate                                 : 192 Kbps\nChannel(s)                               : 2 channels\nChannel positions                        : Front: L R\nSampling rate                            : 48.0 KHz\nBit depth                                : 16 bits\nStream size                              : 150 MiB (5%)\nLanguage                                 : Spanish\nDefault                                  : Yes\nForced                                   : Yes\n\nText #1\nID                                       : 4\nFormat                                   : UTF-8\nCodec ID                                 : S_TEXT/UTF8\nCodec ID/Info                            : UTF-8 Plain Text\nLanguage                                 : English\nDefault                                  : No\nForced                                   : No\n\nText #2\nID                                       : 5\nFormat                                   : UTF-8\nCodec ID                                 : S_TEXT/UTF8\nCodec ID/Info                            : UTF-8 Plain Text\nLanguage                                 : Spanish\nDefault                                  : No\nForced                                   : No\n\nText #3\nID                                       : 6\nFormat                                   : UTF-8\nCodec ID                                 : S_TEXT/UTF8\nCodec ID/Info                            : UTF-8 Plain Text\nTitle                                    : [For]\nLanguage                                 : Spanish\nDefault                                  : Yes\nForced                                   : Yes\n\nMenu\n00:00:00.000                             : en:Ship of the Damned\n00:03:57.000                             : en:Lone Survivor\n00:10:05.000                             : en:Draculaéˆ¥æªš Baggage\n00:15:46.000                             : en:Welcoming Party\n00:23:57.000                             : en:Midnight Encounters\n00:30:03.000                             : en:Innocent Victim\n00:35:45.000                             : en:Business at the Castle\n00:41:16.000                             : en:Van Helsingéˆ¥æªš Arrival\n00:44:54.000                             : en:Intimate Dinner\n00:52:36.000                             : en:A Fatheréˆ¥æªš Gift\n00:57:09.000                             : en:United For Eternity\n01:04:00.000                             : en:Family Reunion\n01:10:30.000                             : en:Casting out Evil\n01:14:31.000                             : en:Wild Work to be Done\n01:19:48.000                             : en:King of His Kind\n01:25:07.000                             : en:Healing Lucy\n01:30:41.000                             : en:Supernatural Love\n01:39:55.000                             : en:Last Voyage\n\n\nDVD - WebDL - HQTV\n &lt;a href=&quot;\nhttp://box.jisko.net/i/561d3b8f.png&quot; rel=&quot;nofollow&quot; target=&quot;_NEW&quot;&gt;\nhttp://box.jisko.net/i/561d3b8f.png&lt;/a&gt;\n &lt;a href=&quot;\nhttp://box.jisko.net/i/a5d49dac.png&quot; rel=&quot;nofollow&quot; target=&quot;_NEW&quot;&gt;\nhttp://box.jisko.net/i/a5d49dac.png&lt;/a&gt;\n &lt;a href=&quot;\nhttp://box.jisko.net/i/e020cc06.png&quot; rel=&quot;nofollow&quot; target=&quot;_NEW&quot;&gt;\nhttp://box.jisko.net/i/e020cc06.png&lt;/a&gt;\n\nSCREENS\n &lt;a href=&quot;\nhttp://box.jisko.net/i/6d51da0c.png&quot; rel=&quot;nofollow&quot; target=&quot;_NEW&quot;&gt;\nhttp://box.jisko.net/i/6d51da0c.png&lt;/a&gt;\n &lt;a href=&quot;\nhttp://box.jisko.net/i/e4a38fac.png&quot; rel=&quot;nofollow&quot; target=&quot;_NEW&quot;&gt;\nhttp://box.jisko.net/i/e4a38fac.png&lt;/a&gt;\n &lt;a href=&quot;\nhttp://box.jisko.net/i/c39e50bc.png&quot; rel=&quot;nofollow&quot; target=&quot;_NEW&quot;&gt;\nhttp://box.jisko.net/i/c39e50bc.png&lt;/a&gt;\n &lt;a href=&quot;\nhttp://box.jisko.net/i/972de4ec.png&quot; rel=&quot;nofollow&quot; target=&quot;_NEW&quot;&gt;\nhttp://box.jisko.net/i/972de4ec.png&lt;/a&gt;\n &lt;a href=&quot;\nhttp://box.jisko.net/i/44e347d6.png&quot; rel=&quot;nofollow&quot; target=&quot;_NEW&quot;&gt;\nhttp://box.jisko.net/i/44e347d6.png&lt;/a&gt;\n &lt;a href=&quot;\nhttp://box.jisko.net/i/20526109.png&quot; rel=&quot;nofollow&quot; target=&quot;_NEW&quot;&gt;\nhttp://box.jisko.net/i/20526109.png&lt;/a&gt;","torrent":{"xt":"urn:btih:d5d2baa0a3dc2692b79f5ae24104239800c1f3ed","amp;dn":"Dracula.1979.HQTV.%28FixColor%29.720p.x264.AC3.%5BFrOnkY%2BBazy%3DHDmEntEs","amp;tr":["udp%3A%2F%2Ftracker.openbittorrent.com%3A80","udp%3A%2F%2Fopen.demonii.com%3A1337","udp%3A%2F%2Ftracker.coppersurfer.tk%3A6969","udp%3A%2F%2Fexodus.desync.com%3A6969"],"infoHash":"d5d2baa0a3dc2692b79f5ae24104239800c1f3ed","infoHashBuffer":{"type":"Buffer","data":[213,210,186,160,163,220,38,146,183,159,90,226,65,4,35,152,0,193,243,237]},"announce":[],"urlList":[]}}